<?xml version="1.0" encoding="utf-8"?>
<!-- Generator: Adobe Illustrator 24.0.0, SVG Export Plug-In . SVG Version: 6.00 Build 0)  -->
<svg version="1.1" id="Layer_1" xmlns="http://www.w3.org/2000/svg" xmlns:xlink="http://www.w3.org/1999/xlink" x="0px" y="0px"
	 viewBox="0 0 153.6 39.2" style="enable-background:new 0 0 153.6 39.2;" xml:space="preserve">
<style type="text/css">
	.st0{clip-path:url(#SVGID_1_);fill:#231F20;}
	.st1{clip-path:url(#SVGID_2_);fill:#231F20;}
	.st2{clip-path:url(#SVGID_3_);fill:#231F20;}
	.st3{clip-path:url(#SVGID_4_);fill:#231F20;}
	.st4{clip-path:url(#SVGID_5_);fill:#231F20;}
</style>
<g>
	<g>
		<defs>
			<rect id="SVGID_11_" width="153.6" height="39.2"/>
		</defs>
		<clipPath id="SVGID_1_">
			<use xlink:href="#SVGID_11_"  style="overflow:visible;"/>
		</clipPath>
		<path class="st0" d="M14.2,39.2c-3.9,0-7.3-1.5-10.1-4.5C1.4,31.8,0,28.2,0,23.9c0-4.2,1.4-7.9,4.2-10.8c2.8-3,6.1-4.5,10.1-4.5
			c3.8,0,7.1,1.4,9.7,4.1V9.6h6.3v28.7h-3.2H24v-3.1C21.3,37.8,18,39.2,14.2,39.2 M15.4,14.8c-2.4,0-4.4,0.9-6,2.6S7,21.3,7,23.9
			s0.8,4.7,2.4,6.4s3.6,2.6,6,2.6s4.4-0.9,6-2.6s2.4-3.9,2.4-6.5s-0.8-4.7-2.4-6.5C19.8,15.7,17.8,14.8,15.4,14.8"/>
	</g>
	<g>
		<defs>
			<rect id="SVGID_13_" width="153.6" height="39.2"/>
		</defs>
		<clipPath id="SVGID_2_">
			<use xlink:href="#SVGID_13_"  style="overflow:visible;"/>
		</clipPath>
		<path class="st1" d="M32.4,9.6h3.2h3.2V12c2.1-2.2,4.6-3.3,7.5-3.3c3.2,0,5.8,1.2,7.9,3.6l0.5,0.6l0.6-0.6
			c2.2-2.4,5.1-3.6,8.7-3.6c3.5,0,6.3,1.1,8.4,3.3s3.1,5.2,3.1,9v17.4H72h-3.5V22c0-2.3-0.5-4.1-1.4-5.3s-2.3-1.8-4.1-1.8
			c-1.9,0-3.3,0.7-4.3,2.1c-0.9,1.4-1.4,3.4-1.4,6.2v15.1H54h-3.5V22.8c0-2.6-0.5-4.6-1.4-5.9c-1-1.3-2.4-2-4.2-2s-3.2,0.7-4.2,2.1
			c-0.9,1.4-1.4,3.4-1.4,6.2v15.1h-3.4h-3.5C32.4,38.3,32.4,9.6,32.4,9.6z"/>
	</g>
	<g>
		<defs>
			<rect id="SVGID_15_" width="153.6" height="39.2"/>
		</defs>
		<clipPath id="SVGID_3_">
			<use xlink:href="#SVGID_15_"  style="overflow:visible;"/>
		</clipPath>
		<path class="st2" d="M77.5,0H81h3.5v12.1c2.6-2.3,5.7-3.5,9.1-3.5c4,0,7.3,1.5,10.1,4.5c2.8,3,4.2,6.6,4.2,10.8s-1.4,7.8-4.2,10.8
			c-2.8,3-6.2,4.5-10.1,4.5c-3.7,0-7-1.3-9.6-4v3h-6.3V0H77.5z M92.4,33c2.4,0,4.4-0.9,6-2.6c1.6-1.7,2.4-3.9,2.4-6.4
			c0-2.6-0.8-4.7-2.4-6.5c-1.6-1.7-3.6-2.6-6-2.6s-4.4,0.9-6,2.6S84,21.4,84,24s0.8,4.7,2.4,6.5C88.1,32.1,90.1,33,92.4,33"/>
	</g>
	<g>
		<defs>
			<rect id="SVGID_17_" width="153.6" height="39.2"/>
		</defs>
		<clipPath id="SVGID_4_">
			<use xlink:href="#SVGID_17_"  style="overflow:visible;"/>
		</clipPath>
		<path class="st3" d="M123.7,39.2c-4.1,0-7.7-1.5-10.6-4.5s-4.4-6.6-4.4-10.8s1.5-7.9,4.4-10.8c2.9-3,6.4-4.5,10.6-4.5
			s7.7,1.5,10.6,4.5c2.9,3,4.4,6.6,4.4,10.8c0,1-0.1,2-0.3,3H116c0.4,1.2,1,2.4,1.9,3.4c1.6,1.7,3.5,2.6,5.9,2.6c1.4,0,2.8-0.3,4-1
			c1.2-0.7,2.1-1.6,2.7-2.7h7.3c-0.9,3-2.7,5.5-5.2,7.3C130,38.3,127.1,39.2,123.7,39.2 M131.5,21.5c-0.3-1.5-1-2.8-2-4
			c-1.5-1.7-3.5-2.6-5.8-2.6s-4.2,0.9-5.8,2.6c-1,1.1-1.7,2.5-2.1,4H131.5z"/>
	</g>
	<g>
		<defs>
			<rect id="SVGID_19_" width="153.6" height="39.2"/>
		</defs>
		<clipPath id="SVGID_5_">
			<use xlink:href="#SVGID_19_"  style="overflow:visible;"/>
		</clipPath>
		<path class="st4" d="M140.4,9.6h3.2h3.2v2.2l0.3-0.5c1.3-1.8,3.3-2.7,5.9-2.7h0.5v6.6c-1.9,0.1-3.4,0.6-4.4,1.5
			c-1.2,1-1.8,2.7-1.8,4.9v16.6h-3.4h-3.5V9.6z"/>
	</g>
</g>
</svg>
